<svg xmlns="http://www.w3.org/2000/svg" width="200" height="200" fill="none" viewBox="0 0 200 200">
<!-- SVG created with Arrow, by QuiverAI (https://quiver.ai) -->
  <path d="m191.1 171.1-43.02-42.86c-2.6-2.59-5.94-2.96-8.73-1.42l-5.52-6.23c9.68-12.9 15.08-28.27 14.73-44.69-0.85-35.84-30.28-71.11-72.55-71.11-38.82 0-71.5 31.79-71.5 72.1 0 36.34 30.72 70.95 72.05 70.95 16.52 0 30.84-5.39 43.41-14.24l7.01 6.78c-1.85 3.32-1.25 7.19 1.65 10.09l42.77 42.23c6.41 6.41 15.93 3.82 20.79-2.73 4.49-6 4.02-13.72-1.09-18.87z" fill="#000"/>
  <path d="m122.8 132.5 9.21-10.38 5.58 6.17-9.06 9.79-5.73-5.58z" fill="#333" stroke="#000" stroke-miterlimit="10" stroke-width="2.61"/>
  <path d="m145.1 76.41c0 36.4-30.65 68.66-68.65 68.66s-68.93-30.46-68.93-68.19 30.46-69.67 68.51-69.67 69.07 31.47 69.07 69.2z" fill="url(#paint0_linear_1106_2049)" stroke="#000" stroke-miterlimit="10" stroke-width="2.61"/>
  <path d="m76.22 136.1c33.67 0 62.79-28.46 62.79-61s-28.02-64.83-62.79-64.83-61.43 29.03-61.43 65.43c0 31.27 25.35 60.4 61.43 60.4z" fill="url(#paint1_linear_1106_2049)" stroke="#000" stroke-miterlimit="10" stroke-width="3.69"/>
  <path d="m136.7 131-5.39 6.05c-2.9 3.32-3.42 7.27-0.52 10.17l42.91 42.58c4.99 4.99 12.99 3.15 16.96-2.85 3.73-5.39 1.39-12.17-2.76-15.71l-40.8-41.13c-2.44-2.44-7.3-2.74-10.4 0.89z" fill="url(#paint2_linear_1106_2049)" stroke="#000" stroke-miterlimit="10" stroke-width="3.13"/>
  <path d="m133.8 139.1 43.82 44.28c4.35 4.35 10.08 3.4 13.28 0.41 1.03-4.89-0.17-8.78-3.7-12.1l-40.39-40.5c-2.01-2.01-4.12-2.37-6.13-1.62l-6.88 7.41v2.12z" fill="#000" opacity=".2"/>
  <path d="m144.8 135.4 38.97 38.67" opacity=".3" stroke="#64FFDA" stroke-linecap="round" stroke-miterlimit="10" stroke-width="3.69"/>
  <path d="m143.3 76.91c-0.48-33.62-29.6-67.2-67.3-67.2-35.61 0-63.53 28.8-66.46 64.13-0.14 1.84-0.17 3.68-0.1 5.52l0.57-0.07c0-36.17 28.72-67.03 64.64-67.03s65.25 30.66 68.48 64.65h0.17z" fill="#fff" opacity=".5"/>
  <path d="m118.2 115.5c0 3.67-15.72 8.22-41.32 8.22-23.79 0-40.89-3.63-40.89-7.3 0-4.39 14.29-6.89 40.89-6.89 24.13 0 41.32 1.6 41.32 5.97z" fill="#9CCC8B"/>
  <path d="m103 116.3c0 2.01-10.9 2.96-26.2 2.96s-26.8-1.35-26.8-2.96c0-2.08 10.76-3.39 26.8-3.39 14.8 0 26.2 1.31 26.2 3.39z" fill="#31683E"/>
  <path d="m32.28 111.9 32.55-92.21c5.76-1.58 10.08-1.75 15.2-1.28 3.98 0.37 8.7 1.38 15.08 3.09l30.66 85.99-7.84 10.31-5.76 5.76-17.46 9.15-15.69 2.44-17.88-1.84-20.22-8.62-8.64-12.79z" fill="url(#paint3_linear_1106_2049)"/>
  <path d="m26.07 75.71c-0.3-19 11.74-39.78 33.79-48.6 4.36-1.84 5.97 1.61 3.86 3.72-1.61 1.61-3.32 1.88-4.6 2.45-16.05 7.55-29.06 21.44-31.5 42.13-0.27 2.57-1.51 2.21-1.55 0.3z" fill="#fff" opacity=".3"/>
  <path d="m107.7 68.6c-2.01-2.34-4.32-1.13-5.29-0.77-0.98-0.27-2.36-0.1-2.93 2.67l-0.67 3.23-2.61 2.99-3.29-4.59 5.29-6-3.1-1.71 0.47-6.78c4.85 0 7.13-0.73 6.73-2.21-0.7-2.31-4.89-4.02-5.36-4.69-1.14-2.93-0.94-9.71-3.28-10.48-2.54-0.88-3.45 0.97-5.56 0.57-1.78-0.37-2.05-2.32-4.62-1.92-3.36 0.51-4.6 6.62-6.28 7.93-2.11 0.17-6.1-0.34-6.4 1.27-0.47 2.21 3.42 4.29 4.7 4.93l-2.41 1.88-0.78 7.99-2.7 0.17c-2.54 0.4-8.95 3.33-11.59 4.71-2.01 0.98-6.87 9.43-7.98 10.94-2.04 2.93-2.31 5.53 0 7.51 2.21 1.84 4.91 0.27 5.62-1.64 0.94 0.47 1.51 0.23 2.05-0.84l4.19-7.28 4.16 2.64c-3.26 3.76-10.47 17.39-11.41 19-0.47 0.81 5.16 3.54 8.25 4.32l-8.99 4.99 1.81 6.68c0.98 2.01 3.09 3.11 4.9 2.71l0.17-4.8 11.32-6.31c2.01 0.5 5.8 1.01 6.3 0.5l2.51-8.09 3.76 2.8-0.17 15.07 12.5 0.23c1.31-2.44-1.98-3.45-4.1-5.1l1.65-13 0.84-1.04-7.67-10.17 1.48-4.84c2.21 1.85 4.91 3.73 8.01 2.66 2.83-1.01 7.96-7.62 9-8.22l-0.5-1.37c2.64-1.24 3.55-4.73 1.98-6.54z" fill="#000"/>
  <path d="m87.71 90.1-4.49-2.44 2.14-5.52 3.33 0.94 5.02 13.93-2.64 1.21-3.36-8.12z" fill="#536738" stroke="#3F4F21" stroke-miterlimit="10" stroke-width="1.05"/>
  <path d="m73.73 56.1-0.3 6.98-0.57 0.37 1.21 0.3-0.34-1.04 5.9 3.89-4.02 2.67 3.04 4.83 4.56 9.22-6.3 20.2c-6.3-0.81-15.81-3.61-20.5-6.41 2.34-8.82 6.8-19.19 11.29-24.05l-6.67 2.15-5.32 8.01-3.99-4.8c2.31-3.32 4.29-7.41 6.3-9.15 3.89-2.11 7.71-4.22 12.34-4.45l4.05-0.2-0.68-8.52z" fill="#50612E" stroke="#293B18" stroke-miterlimit="10" stroke-width="1.05"/>
  <path d="m80.13 46.81c1.28-2.44 2.59-6.69 5.13-6.69 2.01 0 3.15 2.67 5.16 2.5 1.75-0.14 3.39-1.92 4.3-0.54 1.04 1.65 1.51 6.81 1.98 8.72-3.62 1.07-12.87-1.07-16.57-3.99z" fill="#50612E" stroke="#000" stroke-miterlimit="10" stroke-width="1.56"/>
  <path d="m72.12 47.91c0.67-1.57 14.11 0.91 18.1 1.82 4.89 1.14 9.54 2.88 11.19 5.8 0.57 1.08-3.45 1.78-7.24 1.48-7.94-0.64-23.16-6.41-22.05-9.1z" fill="#3A481C" stroke="#000" stroke-miterlimit="10" stroke-width="1.56"/>
  <path d="m78.02 53.72c-2.11 1.14-1.91 4.93 0.33 6.21l5.29 3.69-0.88 3.33c1.35 1.48 5.97 2.25 7.95 0.24 2.11-2.18 3.92-5.47 3.92-9.78-6.31 0.2-11.5-1.75-16.61-3.69z" fill="#D6A38A" stroke="#000" stroke-miterlimit="10" stroke-width="1.05"/>
  <path d="m83.23 55.26c-0.2 1.75 0.44 3.76 2.58 4.16 1.81 0.37 3.25-1.31 3.93-2.31-1.88-0.4-4.32-0.97-6.51-1.85z" fill="#fff" stroke="#000" stroke-miterlimit="10" stroke-width="1.05"/>
  <path d="m90.91 57.91 2.8-0.3c0.2 0.71 0 1.81-1.35 2.08-1.24 0.27-1.78-0.97-1.45-1.78z" fill="#fff" stroke="#000" stroke-miterlimit="10" stroke-width="1.05"/>
  <path d="m94.17 65.06-10.94 15.98 1.48-12.91 3.1 0.4 4.16-3.03 2.2-0.44z" fill="#000"/>
  <path d="m91.43 71.82-8.2 9.89 6.67-11.6 6.18-3.7 0.94 0.81-5.59 4.6z" fill="#50612E" stroke="#000" stroke-miterlimit="10" stroke-width="1.05"/>
  <path d="m91.26 74.53 4.66 2.08 3.79-4.59 4.92 3.79c-2.41 3.22-5.9 8.15-9.19 7.91-2.54-0.17-5.9-3.66-6.91-4.86l2.73-4.33z" fill="#50612E" stroke="#000" stroke-miterlimit="10" stroke-width="1.56"/>
  <path d="m65.26 89.16 8-3.09" stroke="#000" stroke-linecap="round" stroke-miterlimit="10" stroke-width="2.1"/>
  <path d="m78.12 87.72c0.89 0 1.34-0.38 1.34-1.01 0-0.64-0.44-1.01-1.34-1.01-0.74 0-1.21 0.37-1.21 1.01 0 0.63 0.47 1.01 1.21 1.01z" fill="#000"/>
  <defs>
    <linearGradient id="paint0_linear_1106_2049" x1="76.27" x2="76.27" y1="7.206" y2="145.1" gradientUnits="userSpaceOnUse">
      <stop stop-color="#333" offset="0"/>
      <stop stop-color="#222" offset="1"/>
    </linearGradient>
    <linearGradient id="paint1_linear_1106_2049" x1="76.9" x2="76.9" y1="10.28" y2="136.1" gradientUnits="userSpaceOnUse">
      <stop stop-color="#1E5732" offset="0"/>
      <stop stop-color="#386B3C" offset="1"/>
    </linearGradient>
    <linearGradient id="paint2_linear_1106_2049" x1="162.4" x2="162.4" y1="128.4" y2="193" gradientUnits="userSpaceOnUse">
      <stop stop-color="#38894C" offset="0"/>
      <stop stop-color="#2E603A" offset="1"/>
    </linearGradient>
    <linearGradient id="paint3_linear_1106_2049" x1="79.02" x2="79.02" y1="18.13" y2="123.6" gradientUnits="userSpaceOnUse">
      <stop stop-color="#7CB36A" offset="0"/>
      <stop stop-color="#7CB36A" stop-opacity=".25" offset="1"/>
    </linearGradient>
  </defs>
</svg>